HIERARCHY
ROOT Hips
{
	OFFSET 0.00000 0.00000 0.00000
	CHANNELS 6 Xposition Yposition Zposition Zrotation Yrotation Xrotation 
	JOINT LHipJoint
	{
		OFFSET 0 0 0
		CHANNELS 3 Zrotation Yrotation Xrotation
		JOINT LeftHip
		{
			OFFSET 1.77779 -1.88989 0.48267
			CHANNELS 3 Zrotation Yrotation Xrotation
			JOINT LeftKnee
			{
				OFFSET 2.53442 -6.96327 0.00000
				CHANNELS 3 Zrotation Yrotation Xrotation
				JOINT LeftAnkle
				{
					OFFSET 2.71068 -7.44755 0.00000
					CHANNELS 3 Zrotation Yrotation Xrotation
					JOINT LeftToe
					{
						OFFSET 0.17992 -0.49431 2.22524
						CHANNELS 3 Zrotation Yrotation Xrotation
						End Site
						{
							OFFSET 0.00000 -0.00000 1.14687
						}
					}
				}
			}
		}
	}
	JOINT RHipJoint
	{
		OFFSET 0 0 0
		CHANNELS 3 Zrotation Yrotation Xrotation
		JOINT RightHip
		{
			OFFSET -1.58469 -1.88989 0.48267
			CHANNELS 3 Zrotation Yrotation Xrotation
			JOINT RightKnee
			{
				OFFSET -2.60386 -7.15404 0.00000
				CHANNELS 3 Zrotation Yrotation Xrotation
				JOINT RightAnkle
				{
					OFFSET -2.73334 -7.50979 0.00000
					CHANNELS 3 Zrotation Yrotation Xrotation
					JOINT RightToe
					{
						OFFSET -0.25618 -0.70384 2.21822
						CHANNELS 3 Zrotation Yrotation Xrotation
						End Site
						{
							OFFSET -0.00000 -0.00000 1.16381
						}
					}
				}
			}
		}
	}
	JOINT lowerback
	{
		OFFSET 0 0 0
		CHANNELS 3 Zrotation Yrotation Xrotation
		JOINT Chest
		{
			OFFSET 0.03410 2.01612 -0.22230
			CHANNELS 3 Zrotation Yrotation Xrotation
			JOINT Chest2
			{
				OFFSET 0.03465 2.03012 0.00937
				CHANNELS 3 Zrotation Yrotation Xrotation
				JOINT lowerneck
				{
					OFFSET 0 0 0
					CHANNELS 3 Zrotation Yrotation Xrotation
					JOINT Neck
					{
						OFFSET -0.00219 1.70459 0.20857
						CHANNELS 3 Zrotation Yrotation Xrotation
						JOINT Head
						{
							OFFSET 0.02518 1.72339 -0.22179
							CHANNELS 3 Zrotation Yrotation Xrotation
							End Site
							{
								OFFSET 0.00282 1.74122 -0.09823
							}
						}
					}
				}
				JOINT LeftCollar
				{
					OFFSET 0 0 0
					CHANNELS 3 Zrotation Yrotation Xrotation
					JOINT LeftShoulder
					{
						OFFSET 3.36358 1.00547 -0.37661
CHANNELS 3 Zrotation Xrotation Yrotation
						JOINT LeftElbow
						{
OFFSET 0 -5.065070 0.000000
CHANNELS 3 Zrotation Xrotation Yrotation
							JOINT LeftWrist
							{
OFFSET 0 -3.601960 0.000000
CHANNELS 3 Zrotation Xrotation Yrotation
								JOINT lhand
								{
									OFFSET 0 0 0
CHANNELS 3 Zrotation Xrotation Yrotation
									JOINT LFingers
									{
OFFSET 0 -0.450350 0.000000
CHANNELS 3 Zrotation Xrotation Yrotation
										End Site
										{
OFFSET 0 -0.363080 0.000000
										}
									}
								}
								JOINT LThumb
								{
OFFSET 0 0.000000 0.000000
CHANNELS 3 Zrotation Xrotation Yrotation
									End Site
									{
OFFSET 0 -0.368620 0.368620
									}
								}
							}
						}
					}
				}
				JOINT RightCollar
				{
					OFFSET 0 0 0
					CHANNELS 3 Zrotation Yrotation Xrotation
					JOINT RightShoulder
					{
						OFFSET -3.50159 0.80383 -0.71526
CHANNELS 3 Zrotation Xrotation Yrotation
						JOINT RightElbow
						{
OFFSET 0 -5.363940 0.000000
CHANNELS 3 Zrotation Xrotation Yrotation
							JOINT RightWrist
							{
OFFSET 0 -3.580350 0.000000
CHANNELS 3 Zrotation Xrotation Yrotation
								JOINT rhand
								{
									OFFSET 0 0 0
CHANNELS 3 Zrotation Xrotation Yrotation
									JOINT RFingers
									{
OFFSET 0 -0.663750 0.000000
CHANNELS 3 Zrotation Xrotation Yrotation
										End Site
										{
OFFSET 0 -0.535130 0.000000
										}
									}
								}
								JOINT RThumb
								{
OFFSET 0 0.000000 0.000000
CHANNELS 3 Zrotation Xrotation Yrotation
									End Site
									{
OFFSET 0 -0.543300 0.543300
									}
								}
							}
						}
					}
				}
			}
		}
	}
}
MOTION
Frames: 4
Frame Time: 0.008333333333333333
1.153571 17.946562 7.225097 2.796223 1.650749 -3.107072 0.000000 0.000000 0.000000 -27.819105 -1.195398 5.028640 1.379277 7.430938 20.998715 1.073310 -7.956151 -18.536221 0.296367 -3.499356 -9.672490 0.000000 0.000000 0.000000 15.758316 11.295753 -27.263414 -2.433978 -9.707688 28.043030 -0.111807 -7.449389 -12.767860 -0.555622 4.766089 -13.244347 -4.913377 -0.691599 8.058792 1.413116 -1.299860 0.994086 4.376915 -0.575869 -3.345633 -1.168981 -2.861241 -16.577460 0.369509 -3.733065 18.777705 -0.137764 -1.803594 8.622988 0.000000 0.000000 0.000000 11.364335 1.505059 -31.409208 21.132785 -31.982980 6.120146 27.688231 9.566678 -31.917943 0.000000 0.000000 0.000000 -7.125000 0.000000 0.000000 -5.400653 65.027102 2.618576 0.000000 0.000000 0.000000 -1.618211 2.928752 14.053961 -16.241498 -25.847008 -3.750626 -14.255100 -2.059951 -16.072858 0.000000 0.000000 0.000000 7.125000 0.000000 0.000000 9.008883 13.570940 6.728976
1.152459 17.933633 7.347159 2.976916 1.819033 -3.028404 0.000000 0.000000 0.000000 -28.060336 -1.106893 5.709774 1.318828 7.272562 20.525755 1.094586 -7.811709 -18.708791 0.339470 -3.734852 -10.333030 0.000000 0.000000 0.000000 15.345930 11.731070 -26.746040 -2.080610 -9.013629 25.850979 -0.166033 -7.568750 -13.813930 -0.405080 4.044212 -11.206795 -5.058872 -0.783635 7.919997 1.366602 -1.429546 0.999864 4.419865 -0.642020 -3.245137 -1.181928 -2.860736 -16.636206 0.395628 -3.734041 18.778196 -0.127885 -1.801912 8.634529 0.000000 0.000000 0.000000 11.491316 1.318288 -31.416196 21.230183 -32.095955 6.171850 26.704569 8.924729 -31.867076 0.000000 0.000000 0.000000 -7.125000 0.000000 0.000000 -6.599145 64.699002 3.146388 0.000000 0.000000 0.000000 -1.571153 2.960459 14.000831 -16.302748 -25.929369 -3.777384 -14.100398 -1.783079 -15.769904 0.000000 0.000000 0.000000 7.125000 0.000000 0.000000 9.110268 13.891073 6.743629
1.151114 17.921897 7.469157 3.172554 1.969040 -2.933121 0.000000 0.000000 0.000000 -28.301516 -0.964826 6.347157 1.263946 7.125959 20.089212 1.118456 -7.684241 -18.904002 0.398160 -4.048785 -11.214389 0.000000 0.000000 0.000000 14.876050 12.248132 -26.208515 -1.750696 -8.313117 23.676865 -0.182436 -7.826229 -14.376628 -0.317607 3.616578 -10.001121 -5.218957 -0.871593 7.748928 1.313098 -1.553416 1.002008 4.462040 -0.705551 -3.130648 -1.180151 -2.860712 -16.632009 0.413345 -3.737930 18.738218 -0.122237 -1.801943 8.620534 0.000000 0.000000 0.000000 11.633465 1.138422 -31.445659 21.283174 -32.157362 6.199981 25.673320 8.147482 -31.518237 0.000000 0.000000 0.000000 -7.125000 0.000000 0.000000 -7.650560 64.057123 3.538813 0.000000 0.000000 0.000000 -1.518353 2.994781 13.938113 -16.336998 -25.975456 -3.792341 -14.089678 -1.574891 -15.499018 0.000000 0.000000 0.000000 7.125000 0.000000 0.000000 9.115268 14.166123 6.694051
1.146380 17.911056 7.587860 3.289336 2.021735 -2.791089 0.000000 0.000000 0.000000 -28.403203 -0.725636 6.831300 1.215985 6.994562 19.699276 1.136159 -7.660157 -19.051523 0.445504 -4.281319 -11.869725 0.000000 0.000000 0.000000 14.414549 13.085844 -25.651641 -1.451194 -7.607144 21.530951 -0.127750 -8.397581 -14.193840 -0.381350 3.963149 -10.973249 -5.337660 -0.926691 7.542879 1.288877 -1.627382 0.956791 4.505816 -0.742671 -3.051467 -1.162792 -2.863937 -16.482292 0.414442 -3.748223 18.667545 -0.122992 -1.806540 8.569348 0.000000 0.000000 0.000000 11.756970 1.015190 -31.465283 21.234664 -32.101167 6.174113 24.845968 7.281774 -30.541511 0.000000 0.000000 0.000000 -7.125000 0.000000 0.000000 -8.017784 62.838532 3.483098 0.000000 0.000000 0.000000 -1.488575 3.060033 13.836838 -16.271677 -25.887698 -3.763797 -14.358509 -1.605768 -15.565025 0.000000 0.000000 0.000000 7.125000 0.000000 0.000000 8.935156 14.076033 6.575691
